<?xml version="1.0" encoding="UTF-8" standalone="no"?>
<!-- Created with Inkscape (http://www.inkscape.org/) -->

<svg
   width="210mm"
   height="297mm"
   viewBox="0 0 210 297"
   version="1.1"
   id="svg1"
   inkscape:version="1.3.1 (9b9bdc1480, 2023-11-25, custom)"
   sodipodi:docname="recommendation_arrows.svg"
   xmlns:inkscape="http://www.inkscape.org/namespaces/inkscape"
   xmlns:sodipodi="http://sodipodi.sourceforge.net/DTD/sodipodi-0.dtd"
   xmlns="http://www.w3.org/2000/svg"
   xmlns:svg="http://www.w3.org/2000/svg">
  <sodipodi:namedview
     id="namedview1"
     pagecolor="#ffffff"
     bordercolor="#000000"
     borderopacity="0.25"
     inkscape:showpageshadow="2"
     inkscape:pageopacity="0.0"
     inkscape:pagecheckerboard="0"
     inkscape:deskcolor="#d1d1d1"
     inkscape:document-units="mm"
     inkscape:zoom="1.6497561"
     inkscape:cx="396.72531"
     inkscape:cy="384.60231"
     inkscape:window-width="1920"
     inkscape:window-height="1043"
     inkscape:window-x="0"
     inkscape:window-y="0"
     inkscape:window-maximized="1"
     inkscape:current-layer="layer1"
     showguides="true" />
  <defs
     id="defs1" />
  <g
     inkscape:label="Layer 1"
     inkscape:groupmode="layer"
     id="layer1">
    <path
       id="path16"
       style="fill:#ff0000;fill-opacity:1;stroke:#b10000;stroke-width:1.05833;stroke-dasharray:none;stroke-opacity:1"
       d="m 89.852184,149.53538 v 4.85064 h 12.035166 v 7.28699 H 89.852184 v 4.85063 l -11.060163,-8.49422 z" />
    <path
       id="path6"
       style="fill:#f0c4c4;fill-opacity:1;stroke:#ff8080;stroke-width:1.05833;stroke-dasharray:none;stroke-opacity:1"
       d="m 60.702368,122.3905 v 4.85064 h 12.035159 v 7.28699 H 60.702368 v 4.85063 l -11.06016,-8.49422 z" />
    <path
       id="path12"
       style="fill:#f0c4c4;fill-opacity:1;stroke:#ff8080;stroke-width:1.05833;stroke-dasharray:none;stroke-opacity:1"
       d="m 60.702368,94.091529 v 4.850627 h 12.035159 v 7.286984 H 60.702368 v 4.85063 l -11.06016,-8.49422 z" />
    <path
       id="path10"
       style="fill:#94dc94;fill-opacity:1;stroke:#00b800;stroke-width:1.05833;stroke-dasharray:none;stroke-opacity:1"
       d="m 149.29763,94.091529 v 4.850627 h -12.03516 v 7.286984 h 12.03516 v 4.85063 l 11.06016,-8.49422 z" />
    <path
       id="path5"
       style="fill:#ffffff;fill-opacity:1;stroke:#c4c4c4;stroke-width:1.05833;stroke-dasharray:none;stroke-opacity:1"
       d="m 120.14782,64.756588 v 4.850627 h -12.03516 v 7.286984 h 12.03516 v 4.85063 l 11.06016,-8.49422 z" />
    <path
       id="path2"
       style="fill:#94dc94;fill-opacity:1;stroke:#00b800;stroke-width:1.05833;stroke-dasharray:none;stroke-opacity:1"
       d="m 149.29763,64.756592 v 4.850628 h -12.03516 v 7.286994 h 12.03516 v 4.85063 l 11.06016,-8.494222 z" />
    <path
       id="path1"
       style="fill:#00c400;fill-opacity:1;stroke:#009300;stroke-width:1.05833;stroke-dasharray:none;stroke-opacity:1"
       d="m 120.14782,36.729424 v 4.850628 h -12.03516 v 7.286994 h 12.03516 v 4.85063 l 11.06016,-8.494222 z" />
    <path
       id="rect1"
       style="fill:#00c400;fill-opacity:1;stroke-width:1.05833333;stroke-dasharray:none;stroke:#009300;stroke-opacity:1"
       d="m 149.29763,36.729424 v 4.850628 h -12.03516 v 7.286994 h 12.03516 v 4.85063 l 11.06016,-8.494222 z" />
    <path
       id="path3"
       style="fill:#ffffff;stroke-width:1.05833333;fill-opacity:1;stroke:#c4c4c4;stroke-opacity:1;stroke-dasharray:none"
       d="m 60.702371,36.729424 v 4.850628 h 12.035161 v 7.286994 H 60.702371 v 4.85063 L 49.642208,45.223454 Z" />
    <path
       id="path4"
       style="fill:#ffffff;stroke-width:1.05833333;fill-opacity:1;stroke:#c4c4c4;stroke-opacity:1;stroke-dasharray:none"
       d="m 89.852181,36.729424 v 4.850628 h 12.035159 v 7.286994 H 89.852181 v 4.85063 l -11.06016,-8.494222 z" />
    <path
       id="path7"
       style="fill:#ffffff;fill-opacity:1;stroke:#c4c4c4;stroke-width:1.05833333;stroke-dasharray:none;stroke-opacity:1"
       d="m 60.702371,64.756592 v 4.850628 h 12.035161 v 7.286994 H 60.702371 v 4.85063 L 49.642208,73.250622 Z" />
    <path
       id="path8"
       style="fill:#ffffff;fill-opacity:1;stroke:#c4c4c4;stroke-width:1.05833333;stroke-dasharray:none;stroke-opacity:1"
       d="m 89.852181,64.756592 v 4.850628 h 12.035159 v 7.286994 H 89.852181 v 4.85063 l -11.06016,-8.494222 z" />
    <path
       id="path9"
       style="fill:#ffffff;fill-opacity:1;stroke:#c4c4c4;stroke-width:1.05833;stroke-dasharray:none;stroke-opacity:1"
       d="m 120.14782,94.091529 v 4.850627 h -12.03516 v 7.286984 h 12.03516 v 4.85063 l 11.06016,-8.49422 z" />
    <path
       id="path11"
       style="fill:#ffffff;fill-opacity:1;stroke:#c4c4c4;stroke-width:1.05833;stroke-dasharray:none;stroke-opacity:1"
       d="m 89.852185,94.091529 v 4.850627 h 12.035165 v 7.286984 H 89.852185 v 4.85063 l -11.060163,-8.49422 z" />
    <path
       id="path13"
       style="fill:#ffffff;fill-opacity:1;stroke:#c4c4c4;stroke-width:1.05833333;stroke-dasharray:none;stroke-opacity:1"
       d="m 149.29763,122.3905 v 4.85064 h -12.03516 v 7.28699 h 12.03516 v 4.85063 l 11.06016,-8.49422 z" />
    <path
       id="path14"
       style="fill:#ffffff;fill-opacity:1;stroke:#c4c4c4;stroke-width:1.05833333;stroke-dasharray:none;stroke-opacity:1"
       d="m 120.14782,122.3905 v 4.85064 h -12.03516 v 7.28699 h 12.03516 v 4.85063 l 11.06016,-8.49422 z" />
    <path
       id="path15"
       style="fill:#ffffff;fill-opacity:1;stroke:#c4c4c4;stroke-width:1.05833;stroke-dasharray:none;stroke-opacity:1"
       d="m 89.852184,122.3905 v 4.85064 h 12.035166 v 7.28699 H 89.852184 v 4.85063 l -11.060163,-8.49422 z" />
    <path
       id="path17"
       style="fill:#ffffff;fill-opacity:1;stroke:#c4c4c4;stroke-width:1.05833333;stroke-dasharray:none;stroke-opacity:1"
       d="m 149.29763,149.53538 v 4.85064 h -12.03516 v 7.28699 h 12.03516 v 4.85063 l 11.06016,-8.49422 z" />
    <path
       id="path18"
       style="fill:#ffffff;fill-opacity:1;stroke:#c4c4c4;stroke-width:1.05833333;stroke-dasharray:none;stroke-opacity:1"
       d="m 120.14782,149.53538 v 4.85064 h -12.03516 v 7.28699 h 12.03516 v 4.85063 l 11.06016,-8.49422 z" />
    <path
       id="path19"
       style="fill:#ff0000;fill-opacity:1;stroke:#b10000;stroke-width:1.05833333;stroke-dasharray:none;stroke-opacity:1"
       d="m 60.702371,149.53538 v 4.85064 h 12.035161 v 7.28699 H 60.702371 v 4.85063 l -11.060163,-8.49422 z" />
  </g>
</svg>
